<svg xmlns="http://www.w3.org/2000/svg" viewBox="0 0 14.57 14"><title>wishlist-outline-black (2)</title><g id="Layer_2" data-name="Layer 2"><g id="Layer_1-2" data-name="Layer 1"><path id="wishlist-outline-black" d="M13.4,1.28A3.89,3.89,0,0,0,10.53,0h0A3.89,3.89,0,0,0,7.66,1.28h0l-.37.41-.38-.41h0A3.89,3.89,0,0,0,4,0H4A3.89,3.89,0,0,0,1.17,1.28a4.57,4.57,0,0,0,0,6.11h0L7.29,14,13.4,7.39h0A4.57,4.57,0,0,0,13.4,1.28Zm-.56,5.59h0l-.48.52L7.29,12.87,2.22,7.39l-.49-.52h0a3.8,3.8,0,0,1,0-5.07A3.16,3.16,0,0,1,4,.77a3.12,3.12,0,0,1,2.3,1h0l.94,1,.94-1h0a3.12,3.12,0,0,1,2.3-1,3.16,3.16,0,0,1,2.31,1A3.8,3.8,0,0,1,12.84,6.87Z"/></g></g></svg>